<svg width="1400" height="1050" viewBox="0 0 1400 1050" fill="none" xmlns="http://www.w3.org/2000/svg">
<g clip-path="url(#clip0_10825_4156)">
<rect width="1400" height="1050" fill="#D8DEE9"/>
</g>
<path d="M772.708 437.375C784.212 437.375 793.625 446.187 793.625 456.958V594.042C793.625 604.813 784.212 613.625 772.708 613.625H626.292C614.788 613.625 605.375 604.813 605.375 594.042V456.958C605.375 446.187 614.788 437.375 626.292 437.375H772.708ZM729.829 530.689C727.737 528.046 723.555 528.046 721.463 530.592L689.042 569.66L667.079 544.888C664.883 542.44 660.909 542.537 658.922 545.083L632.881 576.417C630.162 579.648 632.567 584.348 636.959 584.348H762.354C766.642 584.348 769.153 579.746 766.538 576.515L729.829 530.689Z" fill="#4C566A"/>
<defs>
<clipPath id="clip0_10825_4156">
<rect width="1400" height="1050" fill="white"/>
</clipPath>
</defs>
</svg>
