<svg id="svg" version="1.1" viewBox="0 0 300 300" width="90" height="90" xmlns="http://www.w3.org/2000/svg"><svg xmlns="http://www.w3.org/2000/svg"><defs><clipPath id="clip-1"><rect x="0" y="0" transform="scale(0.14648,0.14648)" width="2048" height="2048" fill="none"/></clipPath></defs><g clip-path="url(#clip-1)" fill="none" fill-rule="nonzero" stroke="none" stroke-width="1" stroke-linecap="butt" stroke-linejoin="miter" stroke-miterlimit="10" stroke-dasharray="" stroke-dashoffset="0" font-family="none" font-weight="none" font-size="none" text-anchor="none" style="mix-blend-mode: normal"><path d="M146.52686,16.70552c73.59229,-1.91367 134.8125,56.17397 136.76074,129.76538c1.94971,73.59111 -56.10791,134.83916 -129.69873,136.82402c-73.64048,1.98633 -134.93921,-56.11963 -136.88994,-129.76172c-1.95073,-73.64224 56.18555,-134.9127 129.82793,-136.82769zM156.0791,274.83545c68.95166,-3.35742 122.12549,-61.979 118.76367,-130.93096c-3.36182,-68.95225 -61.98486,-122.123 -130.93682,-118.75811c-68.94741,3.3646 -122.11362,61.98325 -118.75239,130.93125c3.36123,68.94727 61.97739,122.1167 130.92554,118.75781z" fill="#0395e4"/><path d="M143.16738,168.97852c13.76572,-0.87012 25.56211,3.99023 37.98398,9.16113c9.97998,4.15576 16.46484,7.56445 27.74414,6.87012c16.97607,-1.04736 29.87549,-12.36475 46.4502,-15.11426c2.67041,-0.44238 8.83594,-0.75732 11.0332,0.79248l0.00293,0.24756c-0.19775,0.13184 -5.41553,1.42383 -6.45703,1.78857c-2.97217,1.06201 -5.8418,2.39063 -8.57373,3.96973c-12.80273,7.3418 -23.0083,19.16016 -37.92041,22.43994c-13.63477,2.99854 -27.88184,-0.28271 -41.0127,-4.09277c-0.97705,-0.18164 -2.87256,-0.76318 -3.89062,-1.0415c-2.49756,-0.69287 -5.00391,-1.35498 -7.51904,-1.98779c-7.58496,-1.88379 -15.35918,-2.90918 -23.17412,-3.0542c-8.7334,-0.22998 -18.09976,0.98145 -26.85601,1.43701c-6.84316,0.38525 -13.70757,0.09814 -20.49463,-0.8584c-15.82104,-2.23535 -29.53857,-8.46826 -44.99531,-12.19775c-4.07622,-0.98291 -8.1479,-1.92627 -12.32285,-2.36426c2.4312,-1.12646 4.62627,-1.08252 7.23735,-1.28613c11.99897,-0.93164 24.17769,1.30371 36.15337,2.20898c7.20601,0.54346 13.21479,0.99316 20.429,0.62256c16.14082,-0.82617 30.02285,-7.0752 46.18228,-7.54102z" fill="#0395e4"/><path d="M240.63574,190.84131l0.104,0.10107c0.04541,0.56543 -2.04932,4.0415 -2.53125,4.80615c-10.38428,16.47803 -26.76855,19.86035 -44.8623,19.11768c-5.22803,-0.21387 -10.38281,-1.0166 -15.53613,-1.27734c-5.73926,-0.2417 -11.4873,-0.11865 -17.21191,0.36768c-14.41553,1.26855 -26.30303,5.56934 -40.06934,9.1582c-20.54077,5.354 -38.98506,-4.6333 -55.90649,-15.37939c-1.86094,-1.28174 -3.81914,-2.54297 -5.7082,-3.79248c16.00415,3.87158 33.33208,7.13818 49.80835,4.99805c7.92656,-1.02979 15.62212,-4.02832 23.19053,-6.43652c6.18633,-1.96729 12.76436,-3.17578 19.25742,-3.35596c15.84961,-0.18018 30.25195,6.61523 46.02979,7.68164c18.04395,1.21875 30.14209,-4.41211 43.43555,-15.98877z" fill="#095d99"/><path d="M223.72852,215.7876l0.15674,0.01465c-0.67969,1.48242 -11.8623,9.06738 -13.84277,10.30078c-17.71875,10.87939 -38.41113,15.90674 -59.146,14.36865c-7.91982,-0.54199 -14.85967,-1.8252 -22.54629,-3.6167c-1.18096,-0.33252 -2.48804,-0.62842 -3.68716,-0.92725c1.86855,0.15527 4.42925,-0.04248 6.29326,-0.25342c14.23857,-1.61279 24.86353,-9.87891 38.89966,-12.86865c3.90674,-0.81152 7.89404,-1.15283 11.88135,-1.01807c3.09375,0.09668 6.271,0.35596 9.33398,0.63135c8.97949,0.80566 17.83594,-0.78223 26.18555,-4.08545c2.15918,-0.854 4.21289,-1.92187 6.47168,-2.5459z" fill="#095d99"/><path d="M229.2085,134.52261c2.03467,-0.42847 5.07861,0.30454 6.75586,1.54424c4.43408,3.28022 4.84424,10.8145 1.70215,15.09478c-1.55566,2.11816 -3.53613,2.96484 -6.06152,3.31934c-13.05908,1.604 -14.58838,-18.30205 -2.39648,-19.95835zM230.48877,151.19678c0.52588,-0.12012 1.20996,-0.26807 1.66699,-0.55078c3.71631,-2.28955 3.87158,-9.75923 0.23584,-12.19629c-0.55811,-0.37427 -1.44727,-0.60981 -2.12988,-0.55181c-6.12744,0.60835 -6.53467,12.5269 0.22705,13.29888z" fill="#0395e4"/><path d="M208.41064,134.68374c3.09521,-0.23188 7.52197,-0.11909 9.24756,2.92793c1.52051,2.6833 -0.3208,4.84233 -2.59424,6.14502c0.95215,0.41631 1.63623,0.69155 2.36865,1.44214c0.97705,0.98394 1.48682,2.33877 1.40039,3.72305c-0.09668,1.77832 -0.92432,2.85205 -2.16943,3.96826c-3.01318,1.93652 -8.80957,1.72559 -12.30615,1.29932l0.0249,-19.14316c1.30225,-0.22104 2.7041,-0.27744 4.02832,-0.36255zM208.70361,151.19678c1.77539,0.22852 3.04688,0.22852 4.6084,-0.77783c2.92236,-3.97383 -1.52197,-4.86841 -4.62451,-4.83003c0.01465,1.86958 0.02051,3.73872 0.01611,5.60786zM208.66699,142.51611c1.49121,0.03501 2.2793,0.13594 3.7002,-0.34702c3.27539,-2.41099 0.44238,-4.60312 -2.80664,-4.4209c-0.22119,0.03999 -0.62402,0.05713 -0.68848,0.21123c-0.44824,1.07783 -0.1377,3.36943 -0.20508,4.55669z" fill="#0395e4"/><path d="M246.75879,134.77983c1.92188,-0.02651 3.84375,-0.03091 5.76709,-0.01304c0.8584,2.12241 1.71973,5.23447 2.4126,7.47524l3.71338,12.01626c-1.604,-0.01172 -3.20801,-0.01318 -4.81201,-0.00439c-0.50977,-1.58643 -0.96826,-3.29443 -1.42822,-4.9043c-0.48926,-0.1875 -4.95557,-0.08057 -5.72607,-0.07031c-0.35449,1.81348 -0.74854,3.19775 -1.2583,4.96582c-1.54102,-0.01465 -3.0835,-0.01172 -4.62451,0.00732c2.0083,-6.39551 3.85986,-13.13555 5.95605,-19.47261zM247.43555,146.04844l2.13721,0.01392l2.17676,-0.02549c-0.30176,-1.01162 -1.97314,-7.44727 -2.31592,-7.98926c-0.57422,2.9729 -1.38574,5.2478 -1.99805,8.00083z" fill="#0395e4"/><path d="M140.4208,103.41768c0.74092,-0.02461 1.55376,-0.00557 2.30098,-0.00396c-0.00879,2.79463 -0.06606,5.75493 0.04204,8.53477c5.96177,-7.55405 13.05747,3.13989 7.79868,10.45723c-0.36914,0.37061 -0.65039,0.62563 -1.08691,0.92666c-1.08691,0.74326 -2.42432,1.0207 -3.71631,0.77007c-1.53149,-0.30806 -2.45947,-1.19766 -3.27056,-2.46372c-0.06079,0.75864 -0.12583,1.51714 -0.19526,2.27505c-0.67207,0.00674 -1.38208,-0.01948 -2.05752,-0.03267c0.23232,-2.16958 0.1415,-4.41445 0.18662,-6.59399c0.09507,-4.58218 -0.12759,-9.30615 -0.00176,-13.86943zM147.49805,122.06162c1.26855,-0.80786 2.02295,-1.80615 2.27637,-3.30703c0.61084,-3.62168 -0.12158,-7.70859 -4.6979,-7.10859c-2.23052,1.40068 -2.36191,3.06899 -2.42798,5.49771c-0.08496,3.12012 1.32656,5.75449 4.84951,4.91792z" fill="#000000"/><path d="M89.52085,103.42339c0.76421,-0.02461 1.57925,-0.0126 2.34902,-0.01465c-0.04497,6.83569 -0.02871,13.67153 0.04863,20.50679c-0.6627,0.01055 -1.42192,-0.04849 -2.0915,-0.08408l-0.05537,-2.2481c-1.85508,2.49888 -3.35317,3.02856 -6.34365,2.21338c-2.89966,-1.72354 -3.41514,-4.09307 -3.44604,-7.1937c-0.05361,-5.35679 5.21089,-10.05234 9.54272,-5.04829zM86.90801,122.16519c2.36089,-1.02202 2.6644,-2.8207 2.69619,-5.17178c0.04658,-3.44868 -0.77505,-5.80488 -4.63872,-5.34888c-1.27119,0.72349 -2.05254,1.66494 -2.34639,3.12319c-0.69097,3.42817 -0.13535,7.69365 4.28892,7.39746z" fill="#000000"/><path d="M194.26318,134.52759c1.93213,-0.32065 4.30078,0.14604 6.12598,0.81475c-0.14795,1.19722 -0.42334,2.37524 -0.82178,3.51372c-1.70947,-0.55122 -5.02588,-1.77451 -6.51416,-0.06021c-1.7168,2.10498 1.62598,3.33911 3.07764,3.86001c3.54492,1.29229 5.96045,3.30044 4.91455,7.43203c-0.88184,3.47754 -3.74268,4.19531 -6.92432,4.4707c-2.33496,0.0293 -4.09131,-0.22852 -6.2124,-1.17187c0.24316,-1.16309 0.49512,-2.43457 0.87158,-3.55225c1.89111,0.73828 5.91064,2.20752 7.58203,0.14502c1.75342,-2.26025 -2.00684,-3.65361 -3.54785,-4.2019c-6.89209,-2.45142 -6.14795,-10.39907 1.44873,-11.25z" fill="#0395e4"/><path d="M235.87061,109.60254c9.28125,-1.22505 9.86572,12.72349 2.53564,14.4501c-6.75146,1.0563 -8.7041,-6.24141 -6.43359,-11.3064c0.77051,-1.72017 2.17236,-2.56143 3.89795,-3.1437zM237.77197,122.35957c1.3667,-0.5584 2.10352,-1.15884 2.65137,-2.58618c1.1748,-3.06958 0.6665,-8.34536 -3.54932,-8.42314c-1.12939,0.27832 -1.85303,0.65098 -2.47119,1.68896c-1.51465,2.54502 -1.37256,7.27852 1.3667,8.95986c0.6665,0.40957 1.2583,0.35259 2.00244,0.3605z" fill="#000000"/><path d="M45.95874,104.34551c0.98848,-0.0501 1.74624,-0.00981 2.73296,0.03882l3.92959,12.95361c0.60366,1.97065 1.53398,4.6144 1.95249,6.53877c-0.97412,0.05054 -1.5126,0.023 -2.4876,-0.04468c-0.56528,-1.97314 -1.1395,-4.11855 -1.79209,-6.04878l-1.73452,-0.02329c-1.49502,-0.00718 -2.99004,0.01011 -4.48462,0.05186c-0.61772,2.02339 -1.20352,4.05645 -1.75723,6.09829c-0.86792,0.02461 -1.57427,-0.02065 -2.43926,-0.07192c0.47285,-1.78799 5.7123,-19.02773 6.08027,-19.49268zM44.55454,115.88994l2.57725,0.05552l2.69136,0.00469c-0.1645,-0.72803 -2.55337,-9.11924 -2.66968,-9.23994c-0.89941,2.78921 -1.72969,6.24126 -2.59893,9.17974z" fill="#000000"/><path d="M165.60059,134.76768l4.43701,-0.01992c0.03223,5.28018 0.00879,10.5605 -0.06738,15.83965c2.56787,0.04688 5.24268,0.00146 7.81934,-0.00732c0.05859,1.13672 0.03369,2.4917 0.04395,3.646c-0.65918,0.14063 -2.99854,0.07324 -3.78076,0.07471c-2.80664,0.00586 -5.60889,-0.104 -8.41846,0.01025c0.04102,-6.29297 0.09814,-13.28467 -0.03369,-19.54336z" fill="#0395e4"/><path d="M159.30762,109.48608c5.88135,0.1147 5.2251,4.95439 5.22363,9.27524c0,1.7209 0.00879,3.43945 0.08496,5.15903c-0.28418,0.00205 -0.56689,0.00278 -0.85107,0.0019c-0.47754,0.00278 -0.75146,0.08057 -1.125,-0.20273c-0.29004,-0.46289 -0.25781,-1.01294 -0.2915,-1.57178c-2.07861,2.08242 -4.42529,3.02622 -6.91846,0.85737c-1.40332,-1.69761 -1.31689,-4.37065 0.15674,-6.0145c1.60107,-1.78564 4.2832,-1.84937 6.52002,-1.9522c-0.1377,-4.53105 -2.88281,-4.12017 -6.28271,-2.82246l-0.42187,-1.60063c1.38574,-0.84404 2.34668,-1.01089 3.90527,-1.12925zM158.75684,122.39063c3.73242,-0.25151 3.4585,-2.75317 3.41309,-5.68154c-0.48779,0.01377 -1.45898,0.01201 -1.90283,0.07515c-1.91748,0.33794 -3.75732,1.2498 -3.5918,3.74517c0.06445,0.97529 1.15283,1.65747 2.08154,1.86123z" fill="#000000"/><path d="M125.19272,104.30317l2.36938,0.00952l0.00527,1.5895c-0.01289,4.34956 0.26675,9.07427 -0.32446,13.33491c-0.40122,2.89146 -3.09507,4.89141 -5.93335,4.93242c-7.37036,0.10664 -6.72554,-6.62256 -6.71074,-11.76138l-0.0082,-8.08037c0.73667,-0.03794 1.63228,-0.01245 2.38184,-0.01143c0.04087,2.89541 -0.03809,5.70337 -0.01919,8.7022c0.01934,3.07427 -0.60894,8.95371 3.92666,9.1897c0.97749,0.04512 2.05869,-0.27495 2.75112,-0.9939c1.96494,-2.03994 1.57031,-5.91782 1.55947,-8.5374c-0.03237,-2.79111 -0.03164,-5.58267 0.0022,-8.37378z" fill="#000000"/><path d="M203.58691,109.59141c5.4873,-0.48486 6.62402,2.18218 6.48047,7.20571c-0.06445,2.28911 0.02783,4.82461 0.19043,7.11021c-0.67676,0.02271 -1.43555,-0.01274 -2.11816,-0.02915l-0.27246,-1.66729c-1.81055,1.87061 -3.70898,2.6978 -6.19043,1.34121c-0.09521,-0.07632 -0.18896,-0.15264 -0.28418,-0.22896c-0.8833,-0.77373 -1.40039,-1.8832 -1.42529,-3.05713c-0.0293,-1.25479 0.4541,-2.46724 1.34033,-3.35684c1.76074,-1.77788 4.08252,-1.76484 6.4043,-1.82871c0.08789,-6.04673 -3.94336,-2.8377 -6.29297,-3.0917c-0.78076,-1.96714 0.52441,-1.93638 2.16797,-2.39736zM204.31494,122.38799c3.73242,-0.31567 3.51855,-2.63906 3.3999,-5.67554c-0.44385,0.01201 -1.42676,0.00996 -1.8252,0.06519c-1.90137,0.32739 -3.75293,1.223 -3.60352,3.71221c0.06006,0.97383 1.11035,1.65835 2.02881,1.89814z" fill="#000000"/><path d="M99.72554,109.48491c4.74331,0.18926 5.24136,3.10693 5.13047,7.19678c-0.06431,2.37026 0.03032,4.86709 0.18164,7.23311c-0.71499,0.02139 -1.36904,-0.02212 -2.0814,-0.05874l-0.33267,-1.5876c-1.98823,2.09502 -4.45605,2.69487 -6.78721,0.71748c-1.40669,-1.66479 -1.51582,-4.13979 0.0208,-5.7624c1.88262,-1.98779 4.15298,-2.07334 6.67017,-2.18511c-0.06826,-1.9333 -0.41514,-3.82046 -2.74087,-3.70342c-1.21538,0.06108 -2.27373,0.66064 -3.41367,0.64746c-0.30894,-0.23628 -0.39229,-0.51606 -0.40269,-0.91172c-0.03647,-1.3856 3.01904,-1.52329 3.75542,-1.58584zM99.1582,122.41245c3.68408,-0.3208 3.48413,-2.72139 3.35874,-5.69326c-0.4626,0.01143 -1.4562,0.00718 -1.87119,0.06987c-1.96729,0.30117 -3.65332,1.20146 -3.56616,3.66753c0.03545,1.00166 1.12207,1.75283 2.07861,1.95586z" fill="#000000"/><path d="M71.93936,109.48374c4.00137,0.19658 5.08096,2.527 5.0209,6.26924c-0.04351,2.70513 -0.00835,5.46592 0.14854,8.16694c-0.66899,-0.00366 -1.4061,0.12847 -1.94077,-0.20889c-0.329,-0.43535 -0.33691,-0.99053 -0.41133,-1.54614c-2.05225,2.21382 -4.44565,2.91152 -6.89224,0.74326c-1.2271,-1.59829 -1.15151,-3.89971 -0.09946,-5.58105c1.29009,-2.06147 4.04502,-1.94561 6.14443,-2.25454c0.88374,-0.13008 0.90981,-1.00752 0.68057,-1.68706c-0.24858,-0.74326 -0.78926,-1.35322 -1.49736,-1.68911c-1.57764,-0.74253 -3.29106,-0.0479 -4.76646,0.5335l-0.43022,-1.63872c1.50161,-0.8521 2.39561,-0.99961 4.04341,-1.10742zM71.34434,122.40073c3.58901,-0.35713 3.42056,-2.74204 3.21182,-5.6811c-0.49277,0.01304 -1.31733,0.0082 -1.77817,0.06973c-1.23149,0.2042 -2.23638,0.40503 -2.98579,1.5104c-1.23047,1.81509 -0.64658,3.67764 1.55215,4.10098z" fill="#000000"/><path d="M180.47607,134.7791c1.41357,-0.0438 2.97656,-0.00996 4.40039,-0.00923c-0.06885,6.4396 0.00732,13.02554 0.00293,19.47964l-4.41504,-0.01318c0.18018,-6.16553 0.12305,-13.27588 0.01172,-19.45723z" fill="#0395e4"/><path d="M174.43652,109.46895c5.24268,0.12861 4.92334,4.9582 4.88379,8.81924c-0.01904,1.87866 -0.01172,3.78633 -0.01758,5.66689c-0.78076,0.0126 -1.64502,-0.03398 -2.43164,-0.05933c-0.12598,-2.91943 1.53662,-16.23633 -4.96729,-11.53359c-0.69873,0.88843 -1.0459,1.57559 -1.09131,2.73193c-0.11719,2.92529 0.03809,5.90728 0,8.83564c-0.8042,0.01172 -1.68604,-0.01436 -2.49756,-0.02314l-0.01611,-14.07378c0.6123,-0.06387 1.4165,-0.02944 2.04785,-0.02197c0.0498,0.65581 0.14795,1.38237 0.22266,2.04229c1.14697,-1.46001 2.02588,-2.09897 3.86719,-2.38418z" fill="#000000"/><path d="M251.66895,109.59536c0.39551,-0.04834 0.79395,-0.07515 1.19092,-0.08057c5.02002,-0.05142 4.63623,5.96147 4.5293,9.34351c-0.05273,1.68018 -0.01904,3.40474 -0.03076,5.0874l-2.38037,-0.03091c0.02051,-1.93345 0,-3.92285 0.05127,-5.85c0.07764,-2.8957 0.08643,-7.96714 -4.396,-6.17769c-2.6543,1.87222 -1.74902,8.88911 -1.71973,12.06606c-0.8042,0.00308 -1.62744,-0.03281 -2.43311,-0.05728c-0.0293,-4.88232 0.10254,-9.05449 -0.1084,-14.02515l2.01709,0.0145l0.32227,1.88877c0.98291,-1.1335 1.56299,-1.66377 2.95752,-2.17866z" fill="#000000"/><path d="M188.6792,109.86724c1.35059,-0.01245 8.95166,-0.202 9.62549,0.17563c0.12598,0.48882 -0.00732,1.30298 -0.26807,1.72368c-2.15039,3.4626 -4.73145,6.72158 -6.90967,10.16235c2.18701,0.1585 5.06104,0.05142 7.34912,0.08218l0.03076,1.89272c-1.55566,0.00557 -9.19629,0.11646 -10.25244,-0.10078l-0.14941,-0.29268c0.22266,-2.17456 5.8667,-9.57349 7.46484,-11.73413l-6.89062,-0.03003z" fill="#000000"/><path d="M219.91553,109.48433c1.43994,0.05947 1.81348,0.16128 3.10254,0.66035c-0.13184,0.56235 -0.33691,1.17656 -0.50684,1.73525c-1.69189,-0.38643 -3.81445,-0.67676 -5.24268,0.51782c-2.32178,1.94268 -2.39355,6.23042 -0.46289,8.47661c1.82227,2.11934 3.33398,0.93765 5.57813,1.09233c0.41162,0.27788 0.29443,0.27305 0.48047,0.8915c0.03662,0.23862 0.01465,0.32607 0,0.56982c-0.42041,0.46055 -1.79297,0.63838 -2.45654,0.72715c-7.16748,0.95654 -9.34424,-7.88833 -5.48584,-12.50757c1.33447,-1.59741 3.01904,-2.06206 4.99365,-2.16328z" fill="#000000"/><path d="M61.07915,109.4874c1.45547,0.08291 1.87471,0.13418 3.21226,0.84272l-0.54771,1.6374c-1.79502,-0.64834 -4.96699,-1.29478 -4.71899,1.56401c0.65669,2.5752 5.73003,2.69839 5.775,5.94565c0.04717,3.39419 -2.10044,4.69146 -5.29409,4.6894c-1.35337,-0.16406 -1.91382,-0.32358 -3.10605,-0.86631c0.13418,-0.623 0.33765,-1.13276 0.55313,-1.72954c1.43848,0.60234 3.17769,1.33579 4.52666,0.37427c0.48647,-0.34673 1.30005,-0.8918 1.18242,-1.61294c-0.33999,-2.08608 -2.80298,-2.6751 -4.23911,-3.80859c-1.97153,-1.51831 -2.43325,-3.6334 -0.74297,-5.55952c0.9999,-1.1332 1.96963,-1.36406 3.39946,-1.47656z" fill="#000000"/><path d="M137.19478,109.45957c0.39858,0.03267 0.40327,-0.00278 0.70796,0.24067c0.28374,0.6835 0.15762,1.41035 0.11396,2.17368c-0.82266,0.0375 -1.41519,0.15923 -2.21689,0.30645c-2.43223,2.01929 -1.67314,4.77114 -1.77188,7.57588c-0.0479,1.36304 0.00996,2.78804 0.0145,4.15825c-0.78823,0.02183 -1.66538,-0.00029 -2.46167,-0.00513l-0.01348,-1.77803c0.02915,-4.09233 0.0186,-8.18481 -0.03149,-12.27686c0.62622,-0.06387 1.36714,-0.05566 2.00552,-0.06577l0.14136,2.6146c0.17505,-0.28506 0.35566,-0.56646 0.54185,-0.84434c0.88418,-1.30898 1.43862,-1.81113 2.97026,-2.09941z" fill="#000000"/><path d="M183.47021,109.77041c0.69287,-0.00835 1.43848,0.02974 2.13574,0.05098c0.05566,4.30576 0.13037,9.71162 -0.01904,13.96772l-0.271,0.1418c-0.68701,0.01509 -1.46338,-0.02139 -2.15771,-0.03765c-0.04541,-3.83979 0.01611,-7.69336 -0.01758,-11.53418c-0.00732,-0.79395 -0.0249,-1.6374 0.06445,-2.42358z" fill="#000000"/><path d="M226.56006,109.7688l1.49707,0.08071c0.01611,1.71548 0.17432,13.06523 -0.12891,13.98706l-0.40137,0.11104l-1.82959,-0.05684c0.01172,-1.6585 -0.11279,-13.42427 0.12598,-13.97974z" fill="#000000"/><path d="M238.36377,103.89009c0.82178,-0.02988 1.73584,-0.01802 2.56494,-0.02534l-3.20508,3.84771c-0.41162,0.31304 -1.06494,0.46494 -1.51758,0.19409c-0.11279,-0.89238 1.58789,-3.1686 2.15771,-4.01646z" fill="#000000"/><path d="M183.85107,104.5519c0.79395,-0.30161 1.68164,0.09961 1.98047,0.89502c0.29883,0.79526 -0.10547,1.68179 -0.90234,1.97754c-0.79248,0.29414 -1.67285,-0.10781 -1.97021,-0.89897c-0.29736,-0.79116 0.10107,-1.67358 0.89209,-1.97358z" fill="#000000"/><path d="M226.41504,104.5251c0.7998,-0.25532 1.65674,0.18149 1.91895,0.97881c0.26221,0.79746 -0.16699,1.65732 -0.96094,1.92715c-0.80566,0.27334 -1.67871,-0.16245 -1.94531,-0.97017c-0.2666,-0.80757 0.17725,-1.6771 0.9873,-1.93579z" fill="#000000"/></g></svg></svg>
